<?xml version="1.0" standalone="no"?>
<!DOCTYPE svg PUBLIC "-//W3C//DTD SVG 20010904//EN"
 "http://www.w3.org/TR/2001/REC-SVG-20010904/DTD/svg10.dtd">
<svg version="1.0" xmlns="http://www.w3.org/2000/svg"
 width="2000.000000pt" height="2000.000000pt" viewBox="0 0 2000.000000 2000.000000"
 preserveAspectRatio="xMidYMid meet">

<g transform="translate(0.000000,2000.000000) scale(0.100000,-0.100000)"
fill="#000000" stroke="none">
<path d="M0 9995 l0 -9995 10000 0 10000 0 0 9995 0 9995 -10000 0 -10000 0 0
-9995z m10291 6758 c52 -40 65 -55 73 -88 6 -28 25 -55 63 -91 46 -44 53 -57
53 -89 0 -27 8 -47 30 -72 32 -36 32 -34 30 -200 -1 -41 1 -43 47 -67 60 -30
84 -70 87 -141 1 -36 8 -63 22 -82 35 -48 45 -90 33 -139 -10 -40 -9 -48 18
-96 24 -43 28 -60 23 -90 -8 -45 6 -89 48 -150 21 -30 32 -59 32 -81 0 -19 5
-47 10 -64 11 -30 -5 -116 -30 -162 -8 -16 -8 -37 0 -82 15 -82 23 -100 58
-136 28 -28 42 -62 55 -139 5 -24 1 -36 -13 -49 -25 -23 -25 -33 0 -60 11 -12
24 -43 29 -69 6 -35 19 -58 46 -86 31 -31 38 -48 45 -96 23 -172 54 -342 66
-366 8 -15 14 -40 14 -55 0 -16 15 -49 35 -77 19 -27 35 -61 35 -75 0 -13 10
-35 22 -48 19 -21 20 -24 6 -40 -9 -10 -18 -42 -22 -72 -8 -60 8 -95 50 -111
14 -6 24 -18 24 -29 0 -11 14 -31 32 -45 31 -24 31 -26 15 -44 -22 -24 -21
-28 4 -64 31 -43 41 -96 23 -123 -14 -22 -13 -24 31 -45 28 -14 45 -28 45 -40
0 -10 11 -25 25 -34 26 -17 32 -45 14 -63 -6 -6 -9 -28 -7 -49 3 -34 8 -41 41
-57 24 -12 37 -26 37 -38 0 -11 12 -30 27 -43 26 -23 26 -24 13 -71 -13 -46
-13 -49 8 -63 12 -8 22 -20 22 -26 0 -7 12 -23 26 -37 26 -25 27 -36 9 -125
-5 -23 -1 -39 18 -67 14 -20 28 -53 32 -74 4 -25 18 -47 38 -65 31 -26 32 -27
12 -42 -17 -12 -18 -18 -8 -34 9 -15 9 -24 -3 -40 -13 -19 -12 -22 7 -32 11
-7 27 -26 34 -44 8 -18 26 -41 40 -50 21 -14 23 -20 15 -36 -15 -27 -13 -35
16 -70 25 -29 25 -32 10 -49 -9 -10 -16 -20 -16 -22 0 -2 20 -15 45 -29 26
-14 45 -32 45 -42 0 -9 15 -29 34 -43 33 -25 36 -25 64 -11 16 8 32 22 35 30
10 25 49 44 102 52 28 3 52 9 55 13 3 4 20 13 38 20 18 8 37 22 43 32 12 24
53 45 103 52 24 4 51 18 70 36 35 34 79 53 101 45 21 -8 73 14 112 47 18 16
50 33 72 39 21 5 44 17 51 25 7 8 23 15 36 15 14 0 42 12 64 26 43 29 138 53
210 54 25 0 54 7 64 15 11 8 31 15 44 15 13 0 39 12 58 27 25 19 51 28 89 31
49 4 53 6 59 33 3 16 10 29 16 29 6 0 18 7 27 16 12 12 27 14 67 9 46 -6 59
-3 131 33 103 52 248 110 294 118 20 4 47 15 61 24 32 22 94 40 142 40 32 0
67 12 138 49 8 4 17 19 20 32 7 29 45 49 113 58 29 4 76 20 105 36 33 17 77
30 115 34 78 8 90 16 85 53 -4 21 0 32 11 36 9 3 21 12 27 20 9 12 25 14 75 9
60 -7 67 -5 109 23 25 16 51 30 59 30 7 0 30 18 50 40 58 63 91 59 179 -22 81
-75 80 -74 87 -131 6 -46 5 -47 -42 -82 -26 -19 -74 -43 -107 -53 -47 -14 -60
-22 -68 -44 -7 -19 -31 -39 -83 -67 -66 -36 -76 -39 -104 -30 -29 10 -34 8
-74 -28 -28 -26 -59 -43 -92 -52 -28 -6 -64 -16 -81 -21 -17 -6 -43 -10 -58
-10 -37 0 -66 -17 -66 -39 0 -11 -10 -22 -22 -26 -20 -6 -21 -8 -5 -12 10 -3
28 2 40 10 12 8 51 18 86 22 49 6 95 22 190 69 111 54 132 61 190 63 112 2
164 13 189 39 46 48 146 71 172 39 7 -8 25 -15 40 -15 16 0 42 -12 59 -26 26
-22 31 -33 31 -70 0 -109 -114 -213 -194 -176 -17 7 -27 6 -44 -8 -12 -10 -41
-21 -65 -25 -23 -4 -76 -15 -117 -25 -41 -10 -100 -22 -130 -25 -57 -7 -143
-38 -172 -63 -10 -8 -47 -23 -84 -33 -40 -11 -75 -28 -89 -43 -13 -14 -40 -28
-61 -32 -22 -4 -50 -12 -64 -19 -14 -6 -33 -10 -42 -8 -20 5 -179 -69 -198
-92 -6 -8 -27 -19 -46 -25 -18 -6 -43 -25 -55 -41 -11 -16 -27 -29 -34 -29 -8
0 -29 -13 -47 -29 -18 -15 -58 -36 -88 -46 -30 -10 -72 -33 -93 -51 -20 -19
-46 -34 -56 -34 -11 0 -32 -6 -48 -14 -64 -32 -141 -56 -178 -56 -52 0 -178
-59 -227 -107 -30 -29 -43 -35 -77 -35 -32 1 -49 -6 -82 -34 -23 -19 -65 -41
-97 -50 -32 -9 -64 -24 -73 -34 -8 -10 -35 -28 -59 -41 -23 -13 -52 -30 -64
-36 -11 -7 -29 -13 -38 -13 -10 0 -38 -15 -62 -34 -24 -18 -64 -42 -90 -52
-25 -10 -48 -26 -51 -35 -7 -22 -142 -101 -175 -103 -14 -1 -38 -11 -54 -24
-16 -12 -39 -22 -51 -22 -13 0 -25 -7 -29 -15 -7 -21 -66 -55 -93 -55 -16 0
-23 -6 -23 -20 0 -10 -9 -24 -20 -30 -24 -13 -18 -30 11 -30 21 0 93 34 119
55 8 7 32 18 52 24 20 7 48 21 62 32 27 21 132 68 237 105 36 13 95 43 132 68
63 42 120 66 159 66 9 0 26 13 38 29 14 21 37 34 76 46 33 10 71 30 95 52 37
34 43 36 77 27 36 -9 39 -8 95 43 32 29 66 53 75 53 9 1 33 14 52 30 19 17 40
30 46 30 40 0 154 48 219 92 74 50 79 51 143 50 58 0 69 2 89 24 12 13 29 24
39 24 9 0 29 14 44 30 19 20 38 30 58 30 36 0 142 47 191 84 26 19 46 26 76
24 30 -1 52 6 81 25 21 15 53 27 70 27 17 0 42 8 55 19 13 10 42 28 65 39 22
11 46 28 53 36 8 9 22 16 32 16 10 0 70 16 131 36 83 27 122 45 148 69 19 18
49 36 65 39 17 4 51 21 77 37 42 27 57 31 145 35 79 3 105 1 133 -14 66 -33
47 -116 -46 -196 -46 -40 -69 -51 -161 -78 -85 -24 -116 -38 -144 -65 -28 -27
-46 -35 -90 -40 -31 -3 -63 -13 -74 -24 -30 -26 -66 -37 -97 -28 -23 6 -33 2
-58 -21 -17 -16 -45 -32 -63 -35 -17 -4 -45 -15 -62 -25 -28 -16 -83 -31 -165
-44 -19 -4 -69 -29 -110 -56 -41 -28 -100 -57 -130 -66 -68 -20 -140 -51 -140
-61 0 -5 26 -8 59 -7 52 0 63 4 100 35 22 20 58 41 78 47 49 14 126 39 182 60
37 13 53 13 101 4 31 -7 71 -12 89 -12 59 0 109 -38 95 -73 -6 -17 -131 -130
-161 -145 -12 -7 -36 -12 -53 -12 -17 0 -71 -16 -120 -35 -49 -19 -111 -41
-137 -47 -26 -7 -67 -28 -91 -45 -24 -18 -47 -33 -52 -33 -5 0 -15 -12 -22
-27 -19 -39 -61 -58 -100 -44 -27 10 -34 8 -65 -19 -26 -23 -43 -30 -75 -30
-29 0 -56 -9 -90 -31 -40 -26 -54 -30 -83 -25 -30 6 -40 3 -64 -21 -15 -16
-66 -43 -114 -61 -60 -23 -101 -46 -137 -79 -58 -52 -53 -69 7 -29 21 14 75
34 121 44 45 11 100 31 122 46 21 14 61 31 87 36 26 6 107 31 178 56 102 36
135 51 153 75 20 25 31 29 70 29 26 1 58 7 72 15 15 8 53 14 92 15 76 0 188
20 268 48 64 22 155 29 165 12 18 -30 -76 -88 -180 -110 -22 -5 -78 -23 -125
-41 -47 -17 -106 -39 -132 -48 -26 -10 -53 -22 -60 -28 -7 -6 -29 -16 -49 -22
-20 -6 -45 -21 -54 -31 -10 -11 -27 -20 -38 -20 -11 0 -50 -19 -86 -42 -48
-30 -77 -42 -106 -42 -27 -1 -47 -8 -61 -22 -12 -12 -41 -25 -65 -29 -24 -4
-91 -28 -149 -55 -58 -26 -130 -55 -161 -64 -71 -20 -322 -134 -397 -181 -35
-21 -102 -48 -167 -66 -61 -17 -115 -37 -120 -44 -6 -7 -26 -16 -45 -20 -19
-4 -46 -13 -60 -20 -14 -7 -61 -23 -105 -35 -44 -12 -87 -28 -95 -35 -23 -20
-110 -55 -136 -55 -12 0 -30 -7 -39 -16 -17 -18 -20 -10 31 -89 11 -17 25 -25
45 -25 24 0 29 -4 29 -24 0 -15 12 -35 32 -51 31 -26 31 -28 13 -41 -14 -11
-19 -24 -16 -53 2 -28 -2 -42 -14 -49 -16 -8 -16 -11 0 -36 17 -26 17 -27 0
-40 -17 -12 -16 -13 11 -19 40 -9 94 -44 94 -61 0 -8 12 -27 26 -41 21 -21 24
-31 19 -57 -6 -26 -3 -34 21 -53 27 -22 28 -23 15 -66 -12 -41 -12 -44 8 -57
12 -8 21 -24 21 -36 0 -13 13 -32 31 -45 31 -23 31 -23 10 -38 -12 -8 -21 -20
-21 -27 0 -17 59 -126 83 -153 15 -17 18 -30 13 -57 -4 -23 -3 -36 4 -36 5 0
10 -8 10 -17 0 -9 14 -32 31 -49 30 -31 31 -33 12 -45 -14 -8 -18 -19 -15 -36
3 -14 -3 -31 -12 -42 -13 -14 -16 -28 -11 -55 6 -31 11 -36 44 -41 47 -8 66
-19 66 -38 0 -8 12 -25 27 -36 22 -18 26 -29 26 -72 1 -28 -3 -58 -8 -68 -5
-9 -13 -35 -18 -58 -9 -39 -7 -46 20 -84 16 -22 45 -47 64 -55 24 -10 34 -21
34 -37 0 -15 11 -29 31 -41 22 -13 28 -21 20 -29 -6 -6 -11 -20 -11 -31 1 -31
38 -107 67 -138 22 -23 24 -30 13 -43 -11 -13 -8 -18 14 -36 24 -19 26 -23 12
-38 -14 -15 -13 -18 5 -29 11 -7 36 -38 56 -69 33 -52 35 -57 18 -69 -11 -8
-16 -21 -12 -33 3 -11 -1 -28 -8 -38 -12 -16 -10 -25 15 -69 26 -47 27 -52 13
-67 -15 -15 -14 -22 10 -84 22 -56 33 -71 57 -80 20 -7 30 -18 30 -31 0 -11
13 -31 29 -45 30 -25 30 -25 10 -43 -19 -17 -19 -18 1 -39 11 -12 20 -28 20
-35 0 -8 12 -27 28 -43 25 -26 26 -29 10 -38 -28 -15 -26 -124 2 -139 13 -7
20 -21 20 -40 0 -16 5 -32 10 -35 6 -3 10 -16 10 -28 0 -13 14 -34 32 -50 31
-25 32 -28 16 -41 -29 -21 -22 -60 17 -99 21 -21 35 -45 35 -59 0 -15 11 -33
31 -47 31 -23 31 -23 10 -38 -13 -9 -21 -25 -21 -43 0 -16 -4 -32 -10 -35 -18
-11 -11 -21 30 -44 22 -12 40 -29 40 -36 0 -8 14 -30 31 -50 27 -30 29 -38 18
-51 -23 -28 -12 -95 22 -129 22 -24 26 -34 17 -43 -6 -6 -13 -34 -15 -61 -2
-41 2 -54 27 -86 17 -21 30 -43 30 -50 0 -7 10 -25 22 -41 12 -15 23 -34 25
-42 1 -9 14 -25 29 -37 22 -18 25 -25 16 -40 -7 -13 -7 -26 -1 -38 7 -12 5
-35 -6 -73 -14 -49 -14 -58 -1 -78 8 -13 11 -28 7 -35 -5 -7 -6 -23 -3 -36 2
-13 -3 -34 -12 -46 -11 -16 -14 -34 -10 -61 5 -26 2 -45 -10 -62 -21 -33 -20
-46 3 -46 29 0 71 -39 71 -66 0 -18 7 -28 28 -35 25 -9 29 -17 40 -79 7 -39
12 -88 12 -109 0 -27 8 -49 24 -68 18 -21 26 -49 35 -113 7 -47 14 -101 17
-120 3 -19 6 -58 6 -87 1 -44 4 -53 24 -62 19 -8 24 -18 24 -49 0 -34 4 -40
34 -54 31 -15 34 -21 38 -71 3 -39 12 -66 30 -89 19 -25 28 -52 33 -99 6 -56
4 -67 -14 -91 l-22 -27 26 -50 c14 -28 25 -65 25 -83 -1 -34 -30 -77 -68 -97
-31 -17 -108 11 -154 56 -32 31 -38 44 -38 78 0 35 -4 43 -26 51 -22 7 -31 24
-55 101 -27 84 -32 92 -59 98 -17 4 -28 10 -25 15 3 4 -1 25 -9 46 -7 22 -11
44 -9 50 2 6 -8 16 -21 22 -14 6 -28 23 -32 37 -4 15 -17 30 -29 35 -17 6 -22
14 -18 29 3 12 -2 27 -11 37 -12 11 -15 25 -11 44 5 23 2 30 -14 35 -16 5 -20
12 -15 31 5 21 2 25 -25 30 -29 6 -31 10 -26 34 4 18 1 31 -10 40 -8 7 -15 27
-15 44 0 57 -42 141 -91 186 -52 47 -89 100 -95 136 -3 21 -14 48 -25 59 -19
19 -19 19 -19 -5 2 -86 43 -190 75 -190 23 0 45 -37 50 -86 12 -98 16 -114 40
-140 15 -17 25 -39 25 -58 0 -40 11 -56 52 -75 27 -13 35 -24 42 -60 6 -29 6
-53 -2 -75 -22 -61 -6 -141 53 -262 30 -60 55 -119 55 -131 0 -19 12 -31 95
-97 28 -23 30 -28 28 -87 -2 -34 2 -68 8 -75 6 -7 9 -35 7 -61 -2 -39 1 -52
20 -70 13 -14 22 -35 22 -54 0 -21 9 -40 25 -55 14 -13 25 -32 25 -43 0 -11
11 -56 25 -100 21 -67 31 -84 55 -96 24 -12 30 -22 30 -48 0 -17 11 -59 25
-92 24 -60 30 -101 19 -142 -8 -30 -27 -35 -76 -17 -72 25 -238 205 -238 258
0 9 -15 31 -34 49 -21 19 -39 49 -46 74 -12 48 -33 73 -61 73 -10 0 -37 16
-59 36 -34 31 -40 42 -40 78 0 22 -6 53 -14 67 -7 14 -16 43 -20 63 -5 24 -24
56 -57 92 -35 38 -49 63 -49 83 0 16 -7 34 -15 41 -41 34 -59 74 -61 137 -2
49 -8 73 -26 101 -23 34 -58 128 -72 195 -5 19 -13 27 -29 27 -14 1 -30 14
-45 38 -21 31 -23 46 -20 109 3 63 1 74 -14 79 -10 3 -34 25 -54 49 -19 24
-50 53 -68 63 -37 22 -66 75 -66 122 0 39 -19 108 -37 135 -7 11 -13 41 -13
66 0 40 -6 55 -38 96 -21 26 -46 54 -54 60 -11 10 -14 31 -13 90 3 87 -13 128
-46 118 -10 -3 -27 -1 -39 5 -18 10 -20 8 -20 -22 0 -19 7 -43 15 -55 8 -11
33 -72 55 -134 22 -63 48 -125 58 -139 30 -41 121 -324 109 -337 -5 -4 -58 78
-125 194 -23 40 -46 74 -50 77 -10 6 4 -142 18 -196 6 -22 10 -42 8 -44 -2 -2
-39 58 -83 134 -43 75 -96 159 -118 186 -30 35 -40 58 -41 85 -1 22 -11 49
-24 67 -72 92 -82 109 -82 137 0 20 -10 41 -27 60 -23 23 -29 40 -33 90 -4 55
-8 62 -29 67 -29 7 -59 53 -60 92 -1 43 -11 58 -52 78 -33 17 -45 34 -89 127
-28 60 -58 121 -66 136 -8 16 -14 51 -14 79 0 32 -7 62 -19 82 -10 17 -22 46
-26 63 -4 20 -13 33 -22 33 -17 0 -86 68 -121 119 -16 23 -21 42 -17 58 3 15
1 25 -9 29 -7 3 -28 38 -47 77 -18 40 -53 102 -77 139 -43 65 -44 69 -48 159
-2 60 -8 99 -19 115 -8 13 -15 34 -15 46 0 35 -107 252 -129 261 -10 5 -28 27
-41 49 -18 32 -21 48 -15 86 4 26 11 54 15 63 16 28 0 60 -33 66 -42 8 -71 75
-61 141 3 26 9 51 12 57 10 17 1 69 -15 86 -16 19 -69 153 -84 212 -5 22 -6
52 -1 70 9 36 6 52 -26 117 -12 25 -22 64 -22 87 0 25 -7 48 -17 58 -34 35
-61 99 -56 132 3 18 1 39 -5 46 -19 22 -62 168 -62 208 0 28 -5 41 -20 49 -32
17 -71 86 -64 114 3 13 -1 37 -9 53 -9 16 -18 45 -22 66 -5 27 -16 42 -41 58
-49 30 -74 86 -67 152 5 46 2 57 -19 82 -40 48 -58 91 -58 139 0 25 -5 48 -10
51 -6 4 -33 -16 -60 -44 -43 -44 -54 -51 -89 -51 -22 0 -43 -4 -46 -10 -3 -5
-30 -10 -60 -10 -62 0 -85 -7 -85 -25 0 -22 -51 -55 -85 -55 -18 0 -38 -6 -45
-14 -6 -8 -40 -24 -76 -36 -47 -16 -68 -29 -81 -50 -9 -16 -22 -26 -30 -23
-21 8 -59 -5 -92 -33 -25 -21 -39 -25 -69 -22 -30 4 -45 -1 -81 -29 -24 -18
-54 -33 -66 -33 -12 0 -30 -9 -40 -20 -10 -11 -34 -23 -54 -26 -20 -4 -48 -13
-63 -20 -15 -8 -40 -14 -57 -14 -20 0 -45 -13 -81 -44 -29 -25 -70 -49 -93
-55 -23 -6 -98 -42 -167 -81 -69 -39 -166 -91 -217 -115 -50 -24 -94 -49 -98
-55 -3 -5 -19 -10 -34 -10 -16 0 -51 -15 -80 -35 -28 -19 -75 -46 -104 -59
-29 -12 -64 -36 -78 -53 -13 -16 -32 -32 -41 -35 -9 -4 -18 -17 -20 -30 -3
-20 -10 -23 -50 -26 -43 -3 -48 -6 -48 -26 0 -29 -20 -46 -57 -50 -25 -3 -28
-7 -31 -47 -2 -24 -5 -71 -7 -104 -3 -33 -5 -87 -6 -120 -1 -75 -32 -125 -95
-156 -51 -24 -51 -26 -33 -172 l11 -88 -35 -39 c-52 -57 -60 -77 -54 -133 5
-42 2 -58 -27 -115 -52 -104 -60 -136 -47 -188 14 -55 -1 -88 -59 -135 -39
-32 -40 -33 -40 -98 0 -66 0 -67 -56 -134 -50 -60 -55 -71 -50 -100 19 -89 18
-109 -4 -154 -17 -34 -20 -49 -12 -71 8 -24 5 -33 -19 -63 -18 -21 -29 -46
-29 -66 0 -19 -10 -44 -27 -63 -26 -31 -45 -106 -47 -187 -1 -24 -6 -33 -22
-37 -16 -4 -24 -19 -33 -63 -7 -32 -17 -78 -22 -103 -6 -25 -21 -72 -34 -105
-25 -63 -37 -188 -20 -215 13 -21 6 -104 -11 -113 -8 -4 -14 -21 -14 -37 0
-16 -7 -33 -15 -38 -20 -10 -26 -59 -24 -199 1 -108 0 -113 -20 -113 -15 0
-21 -6 -21 -24 0 -13 -13 -40 -30 -61 l-30 -37 34 -39 c28 -33 33 -47 32 -83
-1 -36 -8 -51 -42 -88 -41 -44 -41 -45 -48 -143 -4 -55 -10 -104 -14 -110 -3
-5 -8 -28 -9 -50 -4 -45 -9 -87 -13 -95 -1 -3 -1 -17 -1 -31 2 -18 -5 -28 -24
-37 -21 -10 -25 -18 -25 -49 1 -116 2 -113 -25 -123 -14 -5 -25 -14 -25 -20 0
-6 -12 -16 -27 -23 -16 -7 -40 -20 -55 -31 -34 -22 -88 -23 -121 -2 -26 17
-67 100 -67 134 0 11 -7 37 -16 58 -25 60 -16 158 21 212 25 38 29 55 33 133
4 74 7 89 23 94 13 5 17 14 14 38 -14 114 -14 130 0 157 11 20 13 46 8 94 l-6
67 32 12 c25 9 31 17 31 40 0 16 5 38 12 50 6 12 10 47 9 77 -2 42 2 62 17 80
10 14 31 53 47 87 29 66 29 64 9 220 -4 34 0 82 11 139 9 48 15 109 13 135 -5
43 -2 49 24 69 15 11 28 28 28 37 0 9 7 21 16 27 24 18 34 81 33 208 -1 93 1
120 14 132 8 9 18 38 22 66 4 27 15 60 25 72 12 16 19 46 22 95 4 71 5 74 51
121 l48 48 -7 58 c-6 49 -4 61 15 86 16 23 21 43 21 95 0 50 3 65 15 65 18 0
29 22 45 90 31 142 49 188 75 194 15 4 31 18 38 34 6 15 15 29 18 32 4 3 12
39 19 80 6 41 18 93 26 115 18 49 33 141 25 152 -3 5 -20 19 -37 31 -38 26
-48 18 -62 -45 -5 -23 -18 -54 -29 -70 -34 -49 -43 -82 -43 -151 0 -54 -5 -75
-25 -107 -13 -22 -25 -47 -25 -55 0 -8 -11 -42 -25 -75 -13 -33 -25 -78 -25
-100 0 -28 -11 -57 -36 -99 -34 -54 -37 -64 -35 -127 1 -53 -4 -81 -20 -117
-13 -28 -22 -70 -23 -104 -2 -44 -8 -63 -24 -81 -12 -13 -22 -30 -22 -38 0
-21 -26 -90 -51 -138 -13 -25 -27 -82 -35 -139 -17 -123 -44 -224 -77 -285
-14 -26 -31 -73 -36 -105 -18 -93 -41 -161 -59 -174 -10 -8 -17 -28 -18 -51 0
-27 -9 -46 -29 -67 -26 -27 -29 -37 -27 -89 2 -52 -1 -62 -33 -104 -53 -70
-76 -129 -69 -181 6 -39 0 -58 -45 -154 -41 -89 -51 -121 -51 -164 0 -43 -8
-67 -40 -126 -37 -68 -40 -79 -40 -153 0 -55 -5 -87 -15 -103 -25 -38 -66
-222 -59 -265 5 -29 0 -53 -19 -97 -14 -33 -28 -82 -31 -111 -6 -67 -28 -109
-62 -117 -33 -9 -68 13 -90 57 -9 17 -24 39 -34 48 -11 11 -19 40 -23 85 -6
58 -4 72 14 101 18 29 20 39 10 59 -17 37 -13 80 10 135 12 27 19 59 16 71 -3
13 -9 35 -13 51 -7 28 28 128 84 247 23 48 27 69 28 160 0 76 5 113 17 134 9
16 19 47 23 70 3 22 16 53 27 68 16 21 20 42 19 85 -1 55 18 113 38 113 6 0
10 19 10 43 0 25 9 60 24 87 13 25 27 65 31 90 4 25 19 70 32 100 14 30 25 69
24 87 0 21 9 43 26 63 17 21 26 42 25 63 -1 18 12 75 28 129 17 53 30 105 30
116 0 21 18 44 46 60 11 6 18 36 24 107 6 71 14 105 28 124 38 52 62 120 52
147 -13 33 8 82 49 117 31 26 32 28 20 62 -10 27 -10 42 -2 63 6 15 32 77 58
137 25 61 50 133 55 160 14 88 51 229 71 273 38 85 10 100 -29 16 -13 -27 -35
-66 -49 -87 -23 -33 -26 -48 -27 -125 -1 -74 -5 -95 -29 -140 -15 -29 -35 -81
-43 -115 -9 -34 -23 -75 -31 -91 -21 -40 -83 -237 -83 -263 0 -12 -13 -37 -28
-55 -16 -18 -34 -47 -41 -65 -7 -18 -24 -39 -37 -48 -34 -22 -47 -52 -55 -122
-5 -46 -15 -76 -40 -115 -28 -43 -35 -65 -40 -125 -5 -59 -11 -79 -31 -101
-46 -50 -65 -94 -55 -127 6 -21 4 -49 -5 -85 -10 -44 -17 -56 -36 -58 -36 -5
-46 -39 -47 -147 -1 -78 -7 -119 -27 -185 -14 -47 -33 -115 -42 -153 -8 -37
-27 -91 -41 -121 -14 -29 -25 -58 -25 -63 0 -6 -9 -17 -20 -24 -14 -10 -22
-31 -27 -68 -7 -50 -11 -55 -42 -66 -30 -10 -36 -18 -47 -60 -16 -64 -38 -81
-116 -88 -35 -3 -70 -8 -79 -12 -8 -3 -28 -36 -43 -73 -42 -97 -49 -99 -42
-14 l6 73 -48 51 -47 50 -7 97 c-6 96 -6 96 24 134 28 35 29 41 17 69 -11 27
-10 32 5 44 17 12 17 16 2 68 -15 52 -15 58 0 81 13 20 16 47 15 117 0 51 -3
100 -6 110 -9 25 20 63 85 113 l58 44 7 68 c10 99 14 110 46 124 37 15 45 29
54 99 4 30 17 107 30 170 19 99 25 117 45 127 39 20 65 114 41 151 -12 20 10
91 31 98 41 13 60 95 35 144 -16 31 1 103 26 108 8 2 23 14 31 28 9 13 23 24
31 24 12 0 12 5 4 27 -12 33 -4 86 19 120 12 19 13 29 5 43 -12 17 -1 64 22
100 5 8 10 37 12 65 2 32 9 54 19 62 14 10 14 17 4 47 -6 20 -8 45 -5 57 6 19
4 19 -34 -7 -31 -20 -48 -25 -72 -20 -25 5 -38 0 -64 -22 -31 -25 -135 -97
-230 -159 -46 -30 -118 -41 -164 -25 -38 13 -88 -1 -96 -28 -10 -33 -79 -80
-116 -80 -24 0 -48 -11 -78 -35 -25 -20 -51 -33 -58 -31 -7 3 -13 1 -13 -4 0
-18 -73 -91 -89 -89 -31 3 -41 -1 -74 -31 -19 -17 -48 -33 -65 -36 -16 -3 -39
-19 -51 -35 -15 -20 -30 -29 -49 -29 -19 0 -43 -15 -79 -49 -29 -27 -53 -53
-53 -57 0 -9 -100 -115 -168 -176 -46 -42 -58 -48 -96 -48 -59 0 -70 15 -63
91 4 46 11 68 30 88 13 14 30 36 36 49 6 12 20 22 29 22 12 0 27 19 45 55 15
31 27 57 27 59 0 2 -16 4 -35 4 -58 0 -66 13 -59 101 l7 77 -57 13 c-31 7 -70
24 -86 38 -29 24 -30 28 -30 108 0 63 3 84 14 88 11 4 13 16 9 40 -8 49 40
102 112 122 51 15 53 17 59 58 8 45 -8 67 -47 67 -33 0 -84 30 -96 56 -6 14
-11 48 -11 77 0 44 5 59 31 90 17 20 38 37 48 37 10 0 22 13 29 32 12 32 11
34 -23 62 -53 43 -75 93 -75 171 0 72 16 113 52 137 13 9 37 39 53 67 18 31
37 51 48 51 10 0 36 20 59 44 34 38 43 43 63 36 17 -7 27 -4 40 10 13 15 22
17 42 9 35 -13 35 -14 72 41 26 38 40 50 60 50 15 0 39 13 59 33 21 21 44 33
65 34 97 6 106 9 137 52 28 38 33 41 64 36 22 -5 44 -1 66 10 18 9 54 23 81
31 26 8 61 28 78 44 16 17 36 30 44 30 8 0 20 7 27 15 7 8 28 17 49 21 65 11
71 15 112 75 35 52 44 60 72 59 76 -1 108 11 135 51 15 21 41 43 59 49 17 6
37 18 43 26 7 7 24 14 37 14 15 0 45 17 72 39 58 48 94 66 151 75 35 5 53 16
82 47 32 35 41 40 67 34 24 -5 32 -2 51 24 14 21 30 31 46 31 14 0 40 11 57
24 18 13 50 33 73 44 22 11 46 27 52 35 7 8 37 18 67 22 63 7 114 38 135 80 8
17 14 59 15 96 0 50 5 72 18 87 15 16 16 25 8 41 -23 42 -5 115 31 127 11 3
23 22 30 50 7 25 19 46 29 49 13 4 18 21 21 70 4 60 7 67 50 113 28 30 50 65
56 88 31 124 42 184 41 225 -1 28 5 56 16 72 12 19 15 37 11 61 -5 28 0 47 31
102 28 52 36 77 34 109 -2 35 2 45 22 58 15 10 27 30 31 51 4 22 17 43 35 55
24 17 31 33 45 108 10 48 25 96 33 105 8 9 19 48 24 87 8 67 37 142 59 156 5
3 10 21 10 39 0 21 9 43 25 60 14 15 25 38 25 52 0 14 7 35 15 48 13 20 14 31
4 70 -11 45 -10 49 14 74 14 15 29 41 33 57 4 17 13 43 21 59 23 46 51 157 51
205 1 28 9 56 25 80 22 34 67 191 67 236 0 11 11 44 25 73 14 30 25 66 25 81
0 16 10 37 24 50 13 13 27 35 31 49 4 15 14 35 22 44 11 12 14 28 10 54 -5 27
0 49 18 85 16 30 25 65 25 94 0 36 9 62 40 115 30 51 40 79 40 111 0 35 6 49
31 75 25 26 32 44 38 92 4 33 12 66 18 74 6 7 18 38 28 68 9 30 27 73 40 95
12 22 31 69 40 105 10 36 26 81 35 100 10 19 25 69 34 110 9 41 28 93 41 115
14 22 25 48 25 58 0 10 7 20 16 24 12 4 14 14 10 38 -5 26 -1 39 19 63 14 16
25 39 25 51 0 11 13 47 30 79 16 33 33 75 36 93 3 19 12 50 20 69 20 51 64
207 64 230 0 10 10 29 23 42 44 44 48 54 36 80 -15 34 4 102 37 130 14 13 24
32 24 48 0 15 25 77 55 139 43 87 55 123 55 159 0 35 8 58 30 91 31 46 35 56
68 210 15 70 17 101 10 117 -12 27 9 114 28 114 16 0 33 23 43 58 7 21 4 40
-9 69 -15 34 -15 42 -4 58 8 10 14 30 14 43 0 19 4 22 19 17 23 -7 41 19 41
61 0 19 13 39 45 68 l45 42 0 70 c0 77 11 95 63 108 20 5 27 12 27 31 0 27 31
65 53 65 8 0 22 10 33 21 25 29 71 48 115 49 28 0 51 -11 100 -47z"/>
<path d="M10630 14071 c0 -5 5 -13 10 -16 6 -3 10 -2 10 4 0 5 -4 13 -10 16
-5 3 -10 2 -10 -4z"/>
<path d="M9335 13920 c3 -5 8 -10 11 -10 2 0 4 5 4 10 0 6 -5 10 -11 10 -5 0
-7 -4 -4 -10z"/>
<path d="M10676 13848 c15 -24 38 -51 51 -61 12 -10 23 -29 23 -41 0 -13 11
-35 25 -50 23 -25 25 -32 19 -97 -7 -75 2 -87 31 -43 15 24 16 33 5 85 -7 32
-21 66 -31 75 -11 10 -19 31 -19 48 0 26 -10 39 -60 79 -32 26 -62 47 -65 47
-3 0 7 -19 21 -42z"/>
<path d="M10840 13403 c0 -36 5 -55 19 -67 21 -19 26 -15 35 29 6 26 2 36 -24
60 l-30 29 0 -51z"/>
<path d="M9147 13313 c-4 -3 -7 -11 -7 -17 0 -6 5 -5 12 2 6 6 9 14 7 17 -3 3
-9 2 -12 -2z"/>
<path d="M10970 13083 c0 -6 7 -47 15 -90 8 -43 15 -92 15 -108 0 -29 15 -55
31 -55 4 0 12 13 19 29 10 26 8 35 -19 83 -17 30 -31 68 -31 84 0 28 -29 83
-30 57z"/>
<path d="M8800 12854 c0 -8 5 -12 10 -9 6 4 8 11 5 16 -9 14 -15 11 -15 -7z"/>
<path d="M8771 12774 c0 -11 3 -14 6 -6 3 7 2 16 -1 19 -3 4 -6 -2 -5 -13z"/>
<path d="M11097 12713 c-4 -3 -1 -14 7 -22 15 -16 39 -120 52 -219 7 -52 37
-112 62 -120 22 -7 13 27 -17 61 l-30 33 20 64 c17 54 17 65 5 79 -7 9 -23 34
-34 56 -22 44 -55 79 -65 68z"/>
<path d="M8715 12638 c-8 -28 -15 -64 -15 -78 0 -46 -21 -94 -56 -126 -38 -35
-40 -47 -20 -95 12 -28 12 -39 -1 -73 -7 -23 -25 -50 -38 -61 -23 -19 -24 -23
-13 -58 10 -34 9 -40 -10 -65 -39 -49 -51 -78 -56 -143 -3 -35 -19 -109 -35
-164 -29 -94 -42 -201 -22 -180 13 14 51 140 51 168 0 14 6 30 14 36 7 6 17
30 20 53 4 23 17 56 30 73 22 29 32 65 57 200 6 33 19 69 29 80 12 14 25 67
41 175 22 143 26 157 53 182 31 29 37 64 16 104 -19 35 -27 30 -45 -28z"/>
<path d="M14352 12457 c-42 -21 -44 -21 -73 -4 -41 23 -49 22 -127 -17 -37
-18 -103 -46 -147 -61 -46 -16 -89 -38 -101 -52 -14 -17 -46 -30 -115 -46 -53
-13 -109 -33 -125 -44 -16 -11 -46 -25 -66 -31 -21 -6 -64 -27 -97 -46 -33
-20 -82 -43 -109 -51 -27 -8 -55 -21 -61 -29 -7 -8 -27 -17 -46 -20 -19 -4
-59 -18 -87 -31 -29 -14 -63 -25 -75 -25 -12 0 -34 -11 -50 -24 -37 -31 -67
-46 -91 -46 -10 0 -27 -8 -36 -19 -9 -10 -52 -33 -94 -51 -42 -18 -108 -47
-147 -66 -38 -18 -89 -38 -112 -44 -28 -7 -49 -21 -63 -40 -13 -18 -36 -34
-59 -40 -41 -11 -231 -97 -231 -105 0 -2 10 -1 23 4 12 5 60 16 106 26 47 9
92 21 100 25 9 4 50 18 91 30 133 39 164 53 199 89 31 32 40 36 106 42 86 8
157 41 224 104 47 44 101 66 142 58 36 -7 78 13 89 42 10 26 64 65 90 65 8 0
38 11 65 25 28 13 56 25 63 25 7 0 30 14 51 31 35 27 43 29 88 24 43 -6 53 -4
79 17 47 39 142 88 170 88 16 0 37 13 58 35 30 31 39 35 85 35 38 0 61 6 89
25 20 13 55 26 77 29 47 6 152 41 171 57 17 14 18 39 2 38 -7 0 -32 -10 -56
-22z"/>
<path d="M11266 12181 c0 -134 -2 -124 41 -167 34 -34 38 -46 65 -173 29 -135
45 -171 79 -171 18 0 59 44 59 64 0 6 -31 42 -69 80 l-69 69 25 38 25 38 -60
67 -61 67 24 31 c20 26 23 37 16 68 -10 45 -15 53 -49 76 l-27 20 1 -107z"/>
<path d="M9993 12148 c-38 -13 -40 -17 -14 -50 12 -15 20 -43 22 -78 l3 -54
-84 -78 c-85 -78 -85 -78 -83 -125 1 -26 -3 -53 -9 -60 -11 -14 -14 -76 -4
-92 4 -6 -9 -34 -29 -63 -22 -33 -35 -65 -35 -84 0 -25 -10 -42 -45 -75 -34
-33 -45 -50 -45 -74 0 -17 -5 -36 -11 -42 -6 -6 -11 -33 -11 -59 1 -31 -5 -59
-18 -80 -11 -17 -20 -44 -20 -60 0 -18 -20 -58 -51 -104 -47 -71 -50 -77 -48
-135 1 -44 -3 -69 -16 -88 -30 -46 2 -32 76 34 40 36 84 65 106 71 21 5 53 21
71 35 28 21 41 24 73 19 28 -5 47 -2 62 9 12 8 35 15 52 15 26 0 33 6 50 43
l20 42 54 -3 c48 -3 60 1 116 38 35 23 85 50 112 60 28 10 53 27 60 41 17 32
16 124 -1 152 -7 12 -19 45 -26 72 -8 30 -26 64 -45 85 -37 40 -55 71 -55 97
0 10 -15 42 -33 71 -32 51 -33 56 -25 114 4 34 6 70 2 80 -3 10 -28 44 -55 75
-27 31 -50 61 -51 67 -1 6 -3 27 -4 46 -6 81 -17 150 -23 149 -3 -1 -21 -6
-38 -11z"/>
<path d="M8626 11855 c-3 -9 -3 -21 0 -26 3 -6 -2 -21 -11 -36 -26 -39 -66
-166 -56 -176 4 -4 20 6 35 24 21 25 27 40 23 63 -3 21 3 48 21 84 24 47 25
53 10 68 -14 14 -16 14 -22 -1z"/>
<path d="M11480 11611 c0 -12 6 -21 15 -21 8 0 15 4 15 9 0 5 -7 14 -15 21
-13 10 -15 9 -15 -9z"/>
<path d="M9257 11483 c-11 -10 -8 -20 8 -27 10 -4 15 1 15 14 0 20 -11 26 -23
13z"/>
<path d="M8362 11407 c-8 -9 -12 -26 -10 -39 l3 -23 13 23 c7 13 12 30 10 39
-3 15 -4 15 -16 0z"/>
<path d="M8393 11254 c-49 -127 -48 -133 6 -59 54 74 59 90 37 120 -12 16 -16
11 -43 -61z"/>
<path d="M8303 11243 c-24 -24 -30 -57 -14 -67 5 -3 16 15 25 41 9 25 15 47
13 48 -1 0 -12 -10 -24 -22z"/>
<path d="M9153 11135 c-3 -9 -3 -18 0 -21 9 -9 27 6 27 22 0 19 -19 18 -27 -1z"/>
<path d="M9090 10997 c0 -18 -7 -43 -16 -55 -9 -13 -13 -30 -9 -40 6 -13 11
-9 26 23 20 43 25 105 9 105 -5 0 -10 -15 -10 -33z"/>
<path d="M8231 11008 c0 -9 -4 -25 -7 -35 -5 -17 -5 -17 6 0 6 10 9 25 7 35
-4 15 -5 15 -6 0z"/>
<path d="M8292 10965 c-7 -14 -12 -40 -12 -58 l1 -32 35 38 c29 31 33 41 24
57 -15 27 -34 25 -48 -5z"/>
<path d="M13320 10983 c-20 -7 -50 -34 -50 -45 0 -15 27 -9 54 13 37 29 35 46
-4 32z"/>
<path d="M13005 10830 c4 -6 11 -8 16 -5 14 9 11 15 -7 15 -8 0 -12 -5 -9 -10z"/>
<path d="M9007 10732 c-21 -23 -22 -43 -2 -36 14 6 31 42 23 50 -3 2 -12 -4
-21 -14z"/>
<path d="M12475 10672 c-38 -13 -51 -22 -53 -39 -2 -13 0 -23 4 -23 21 0 124
55 124 66 0 18 -13 17 -75 -4z"/>
<path d="M8024 10174 c-3 -10 -10 -29 -15 -42 -12 -29 -12 -59 0 -46 10 11 32
97 26 103 -3 2 -7 -5 -11 -15z"/>
<path d="M12060 10103 c0 -10 55 -103 61 -103 4 0 12 6 18 14 13 15 2 55 -20
72 -16 13 -59 25 -59 17z"/>
<path d="M9542 9200 c-27 -35 -27 -41 -4 -33 21 7 62 43 62 55 0 19 -38 5 -58
-22z"/>
<path d="M8990 8910 c-12 -8 -11 -10 8 -10 12 0 22 5 22 10 0 13 -11 13 -30 0z"/>
<path d="M7868 8758 c-11 -34 -14 -57 -8 -67 8 -13 10 -11 10 9 0 14 14 41 30
60 36 41 37 50 8 50 -19 0 -26 -10 -40 -52z"/>
<path d="M7135 8405 c-22 -14 -50 -25 -61 -25 -12 0 -27 -6 -34 -14 -6 -8 -42
-27 -80 -42 -38 -15 -81 -40 -96 -55 -37 -39 -15 -38 71 2 60 29 72 31 131 25
54 -5 64 -4 64 9 0 8 8 23 18 33 14 14 39 93 29 92 -1 0 -20 -12 -42 -25z"/>
<path d="M12330 8347 c0 -8 3 -17 6 -20 10 -9 46 12 39 24 -9 14 -45 11 -45
-4z"/>
<path d="M6730 8195 c0 -7 -12 -23 -26 -34 l-26 -20 27 -7 c30 -8 41 0 50 37
5 19 2 28 -9 32 -10 4 -16 1 -16 -8z"/>
<path d="M6445 8030 c-3 -6 1 -7 9 -4 18 7 21 14 7 14 -6 0 -13 -4 -16 -10z"/>
<path d="M12411 7935 c0 -11 6 -29 14 -39 15 -20 15 -20 15 0 0 11 -7 29 -15
40 -14 19 -14 19 -14 -1z"/>
<path d="M6270 7915 c-8 -9 -8 -15 -2 -15 12 0 26 19 19 26 -2 2 -10 -2 -17
-11z"/>
<path d="M12477 7803 c-15 -15 -5 -41 28 -73 40 -39 45 -26 14 37 -20 42 -29
50 -42 36z"/>
<path d="M12555 7572 c5 -9 15 -37 23 -62 8 -25 25 -65 38 -90 12 -25 30 -74
39 -110 20 -82 34 -118 57 -152 10 -14 18 -30 18 -36 0 -26 111 -234 128 -240
18 -6 15 25 -3 32 -13 4 -14 16 -9 53 5 41 3 51 -15 67 -15 13 -18 23 -11 35
6 13 3 20 -11 29 -12 8 -19 23 -19 42 0 26 -5 31 -30 37 -16 3 -30 7 -30 9 0
1 4 14 9 27 8 21 6 26 -11 30 -17 5 -19 11 -13 45 4 29 2 42 -9 51 -9 7 -13
18 -10 23 6 9 -3 31 -48 119 -10 20 -18 43 -18 50 0 24 -15 39 -49 49 -29 8
-32 7 -26 -8z"/>
<path d="M5376 7274 c-17 -12 -17 -14 -4 -14 9 0 20 5 23 11 11 17 2 18 -19 3z"/>
<path d="M12870 6820 c0 -14 9 -36 19 -49 l19 -24 7 23 c5 17 1 29 -19 48
l-26 27 0 -25z"/>
<path d="M12930 6724 c0 -19 24 -44 42 -44 21 0 21 0 -2 25 -22 23 -40 32 -40
19z"/>
<path d="M13000 6614 c0 -3 9 -17 20 -31 11 -14 20 -38 20 -53 0 -36 34 -79
50 -64 8 8 4 19 -15 42 -18 22 -24 38 -20 55 5 18 1 28 -19 40 -27 18 -36 21
-36 11z"/>
<path d="M13127 6378 c16 -33 28 -47 30 -37 4 18 -34 89 -48 89 -5 0 3 -24 18
-52z"/>
</g>
</svg>
